<svg width="235" height="258" viewBox="0 0 235 258" fill="none" xmlns="http://www.w3.org/2000/svg">
<g clip-path="url(#clip0_115_8723)">
<path d="M37.9899 172.127C33.7976 173.696 29.4333 174.908 25.5442 177.126C21.6551 179.343 18.1895 182.793 17.221 187.165C16.9884 188.217 16.9044 189.31 17.0591 190.375C17.3371 192.288 18.376 194.032 19.7142 195.426C20.8399 196.599 22.2532 197.587 23.8618 197.818C25.5669 198.063 27.288 197.435 28.7716 196.559C34.2618 193.313 37.0527 187.058 40.8265 181.918C43.9787 177.627 47.9415 174.001 51.3523 169.913C51.9855 169.156 52.624 168.326 52.7352 167.346C52.7876 166.902 52.6349 166.34 52.196 166.251C52.0598 166.224 51.9198 166.247 51.7874 166.283C50.5803 166.595 49.743 167.658 48.9915 168.654C43.2158 176.304 37.1447 183.731 30.8004 190.916C29.8332 192.011 28.834 193.122 27.551 193.82C25.8904 194.727 23.791 194.839 22.0855 194.014C20.3831 193.188 19.1505 191.411 19.0785 189.521C19.0218 188.007 19.6558 186.555 20.3757 185.219C21.1731 183.74 22.094 182.32 23.2363 181.087C25.8865 178.225 29.5692 176.545 33.2693 175.313C36.9713 174.081 40.8065 173.22 44.3692 171.635C46.358 170.751 48.2988 169.609 49.7814 167.991C50.9608 166.705 52.3081 163.771 49.6366 165.894C46.1687 168.648 42.1164 170.582 37.988 172.126L37.9899 172.127Z" fill="#FF5310"/>
<path d="M60.5047 177.962C60.5047 177.962 56.3272 181.66 46.0112 170.017C35.3061 157.935 39.8727 154.676 39.8727 154.676L91.2127 109.194L111.843 132.482L60.5035 177.964L60.5047 177.962Z" fill="#47D658"/>
<path d="M111.743 132.569C110.298 133.85 104.509 129.673 98.811 123.244C93.1143 116.813 89.6674 110.562 91.1106 109.283C92.555 108.001 98.3442 112.179 104.042 118.608C109.739 125.039 113.186 131.289 111.743 132.569Z" fill="#3DB248"/>
<path d="M52.4379 153.684L55.9149 155L52.7567 156.96L52.5776 160.674L49.7369 158.274L46.1507 159.254L47.5558 155.811L45.5144 152.701L49.2242 152.973L51.5502 150.07L52.4379 153.684Z" fill="#FFDF24"/>
<path d="M76.6487 154.168L80.1275 155.485L76.9662 157.445L76.7902 161.159L73.9483 158.76L70.3602 159.739L71.7666 156.295L69.7259 153.187L73.4337 153.458L75.7616 150.557L76.6487 154.168Z" fill="#FFDF24"/>
<path d="M95.3605 88.5843L100.241 90.4302L95.806 93.1803L95.558 98.3931L91.5724 95.025L86.5391 96.4001L88.5097 91.5692L85.6462 87.2069L90.8501 87.5871L94.1154 83.5186L95.3605 88.5843Z" fill="#FF5310"/>
<path d="M168.923 113.522L173.803 115.368L169.368 118.118L169.12 123.331L165.135 119.962L160.101 121.338L162.072 116.507L159.21 112.142L164.414 112.526L167.679 108.454L168.923 113.522Z" fill="#FF5310"/>
<path d="M173.9 54.3811L178.779 56.229L174.345 58.9771L174.097 64.19L170.111 60.8219L165.078 62.197L167.049 57.3661L164.185 53.0037L169.389 53.384L172.654 49.3155L173.9 54.3811Z" fill="#FF5310"/>
<path d="M126.076 144.954L130.955 146.802L126.52 149.552L126.273 154.763L122.286 151.397L117.254 152.77L119.225 147.939L116.361 143.577L121.567 143.958L124.83 139.889L126.076 144.954Z" fill="#FF5310"/>
<path d="M132.225 105.24L137.105 107.086L132.67 109.836L132.422 115.049L128.437 111.681L123.403 113.056L125.374 108.225L122.512 103.861L127.716 104.245L130.981 100.173L132.225 105.24Z" fill="#FF5310"/>
<path d="M166.041 76.967L170.922 78.8129L166.487 81.563L166.24 86.774L162.253 83.4077L157.221 84.7809L159.192 79.9501L156.328 75.5877L161.533 75.9711L164.798 71.8995L166.041 76.967Z" fill="#FF5310"/>
<path d="M113.89 61.0598L118.771 62.9057L114.336 65.6558L114.086 70.8674L110.102 67.5005L105.068 68.8725L107.039 64.0416L104.177 59.6805L109.38 60.0626L112.645 55.991L113.89 61.0598Z" fill="#FF5310"/>
<path d="M80.2358 132.581L83.7146 133.898L80.5533 135.858L80.3773 139.572L77.5366 137.172L73.9485 138.151L75.3537 134.708L73.3123 131.597L77.0208 131.871L79.3487 128.97L80.2358 132.581Z" fill="#FFDF24"/>
<path d="M100.384 142.631L105.867 137.773L105.108 137.487L104.222 133.874L101.894 136.775L98.1865 136.505L100.226 139.614L98.8209 143.057L100.384 142.631Z" fill="#FFDF24"/>
<path d="M86.7025 113.184L82.2572 117.122L85.0823 119.51L85.2614 115.795L88.4208 113.834L86.7025 113.184Z" fill="#FFDF24"/>
<path d="M60.4869 177.977L62.5184 176.177L60.6407 175.466L59.7536 171.855L57.4257 174.756L53.716 174.484L55.7555 177.593L55.6335 177.891C59.0063 179.285 60.485 177.976 60.485 177.976L60.4869 177.977Z" fill="#FFDF24"/>
<path opacity="0.46" d="M85.9894 117.788C80.6427 120.176 78.1169 126.224 74.0303 130.42C69.7556 134.807 63.6894 137.202 59.7174 141.863C59.07 142.621 58.4522 143.588 58.7065 144.553C58.9821 145.603 60.2317 146.153 61.3079 146.006C62.384 145.858 63.3136 145.201 64.1764 144.54C69.8255 140.213 74.7058 134.932 80.4867 130.786C82.6354 129.243 84.9149 127.854 86.8188 126.021C88.2975 124.597 90.496 121.997 90.4016 119.765C90.2998 117.377 87.8442 116.962 85.99 117.791L85.9894 117.788Z" fill="white"/>
<path opacity="0.46" d="M56.0506 147.835C55.7162 147.047 54.9332 146.466 54.0816 146.374C53.2288 146.284 52.3402 146.686 51.8497 147.388C51.564 147.794 51.4107 148.279 51.328 148.77C51.1809 149.641 51.2577 150.581 51.7202 151.336C52.5471 152.687 54.6253 153.045 55.8568 152.05C57.0883 151.055 57.1732 148.948 56.0262 147.857L56.0537 147.835L56.0506 147.835Z" fill="white"/>
<path d="M119.494 121.714C122.016 120.666 124.867 120.228 127.501 120.953C130.135 121.678 132.488 123.689 133.192 126.328C133.584 127.799 133.458 129.37 133.065 130.839C132.733 132.076 132.185 133.303 131.219 134.143C130.252 134.984 128.8 135.354 127.653 134.786C126.417 134.173 125.852 132.642 126.006 131.273C126.161 129.903 126.901 128.673 127.711 127.558C129.796 124.687 132.667 122.159 136.156 121.513C138.916 121.003 141.778 121.725 144.317 122.917C147.715 124.51 150.797 127.078 152.262 130.531C153.607 133.696 153.45 137.462 151.851 140.505C150.248 143.548 147.232 145.808 143.863 146.491C142.183 146.832 140.103 146.616 139.254 145.126C138.75 144.24 138.836 143.127 139.14 142.154C139.934 139.621 142.012 137.713 144.154 136.144C146.318 134.557 148.677 133.167 151.281 132.518C153.883 131.87 156.767 132.027 159.077 133.389C161.79 134.986 163.412 138.099 163.647 141.238C163.882 144.377 162.857 147.517 161.238 150.218C159.402 153.282 156.785 155.876 153.703 157.686C153.548 157.776 153.383 157.868 153.203 157.862C152.961 157.854 152.764 157.675 152.591 157.504C151.674 156.602 150.756 155.702 149.839 154.8C153.915 154.084 157.245 150.806 158.776 146.959C159.551 145.011 159.923 142.862 159.55 140.802C159.174 138.741 157.993 136.78 156.181 135.726C154.367 134.671 152.076 134.612 150.099 135.319C148.124 136.024 146.454 137.435 145.179 139.101C144.845 139.537 144.52 140.077 144.677 140.604C144.873 141.263 145.704 141.493 146.391 141.437C148.291 141.289 149.923 139.772 150.501 137.956C151.079 136.14 150.713 134.114 149.81 132.435C148.907 130.756 147.512 129.392 146.004 128.227C143.415 126.227 140.29 124.71 137.017 124.775C133.746 124.842 130.386 126.806 129.411 129.931C129.327 130.203 129.258 130.496 129.343 130.766C129.528 131.367 130.404 131.52 130.917 131.152C131.43 130.784 131.615 130.103 131.615 129.47C131.615 127.943 130.703 126.502 129.445 125.639C128.187 124.775 126.62 124.439 125.094 124.45C123.3 124.463 121.479 124.955 120.047 126.034C118.614 127.113 117.613 128.816 117.578 130.61C116.665 129.636 113.192 125.643 113.192 125.643C113.192 125.643 117.617 122.496 119.494 121.714Z" fill="#FFDF24"/>
<path d="M120.815 101.299C123.417 100.468 125.875 98.9555 127.416 96.7008C128.957 94.4462 129.449 91.3899 128.279 88.9207C127.627 87.5458 126.515 86.4293 125.264 85.5626C124.212 84.8327 123.001 84.2522 121.719 84.2371C120.439 84.2201 119.092 84.8789 118.584 86.0552C118.038 87.3202 118.596 88.8549 119.599 89.7997C120.604 90.7427 121.964 91.2047 123.303 91.5312C126.748 92.3723 130.576 92.442 133.654 90.6796C136.089 89.2851 137.806 86.8821 138.971 84.3302C140.531 80.9191 141.222 76.9662 140.109 73.3839C139.088 70.1008 136.534 67.3292 133.344 66.0429C130.155 64.7578 126.391 64.9851 123.379 66.6437C121.877 67.4704 120.427 68.9797 120.746 70.6667C120.934 71.6683 121.719 72.463 122.581 73.0079C124.824 74.4273 127.644 74.5368 130.293 74.3474C132.97 74.1572 135.669 73.6918 138.073 72.5033C140.477 71.3149 142.574 69.3288 143.457 66.795C144.493 63.8215 143.717 60.3998 141.864 57.8531C140.011 55.3064 137.201 53.5741 134.219 52.5622C130.836 51.4133 127.164 51.1287 123.644 51.7405C123.467 51.7716 123.281 51.8095 123.147 51.9296C122.967 52.0916 122.935 52.3576 122.912 52.5975C122.795 53.8793 122.677 55.1598 122.562 56.4397C126.135 54.3486 130.794 54.6961 134.449 56.6405C136.298 57.6252 137.973 59.0201 139.02 60.8359C140.068 62.6517 140.434 64.9114 139.734 66.8866C139.032 68.8636 137.321 70.3914 135.358 71.1307C133.395 71.8701 131.208 71.8744 129.16 71.4294C128.623 71.3113 128.025 71.1112 127.806 70.6072C127.531 69.9766 128.014 69.2657 128.573 68.8641C130.117 67.7484 132.346 67.851 133.96 68.8611C135.576 69.8725 136.605 71.6552 137.003 73.5185C137.401 75.3819 137.221 77.3259 136.824 79.1902C136.143 82.3894 134.738 85.5696 132.203 87.6342C129.664 89.6994 125.831 90.3759 123.067 88.6227C122.827 88.4692 122.587 88.2897 122.476 88.0284C122.228 87.45 122.796 86.7678 123.424 86.7169C124.053 86.6659 124.636 87.067 125.044 87.5472C126.031 88.7127 126.268 90.3994 125.867 91.8733C125.466 93.3473 124.49 94.6147 123.317 95.594C121.939 96.7437 120.233 97.5462 118.442 97.6517C116.652 97.7541 114.787 97.1045 113.601 95.759C113.536 97.0927 113.468 102.383 113.468 102.383C113.468 102.383 118.879 101.923 120.816 101.305L120.815 101.299Z" fill="#FFDF24"/>
<path d="M164.014 98.4513C165.328 100.845 167.282 102.968 169.791 104.047C172.3 105.127 175.393 105.024 177.592 103.405C178.817 102.501 179.7 101.197 180.31 99.8011C180.823 98.6285 181.162 97.327 180.932 96.0671C180.703 94.8071 179.799 93.611 178.548 93.3368C177.201 93.0425 175.801 93.8848 175.068 95.0525C174.333 96.219 174.142 97.6405 174.078 99.0174C173.914 102.561 174.577 106.329 176.897 109.015C178.732 111.138 181.419 112.363 184.146 113.018C187.794 113.895 191.804 113.815 195.107 112.037C198.134 110.406 200.365 107.368 201.015 103.992C201.665 100.616 200.723 96.9666 198.518 94.3288C197.418 93.0132 195.66 91.8805 194.066 92.5144C193.117 92.8908 192.49 93.8139 192.12 94.7631C191.156 97.2367 191.589 100.026 192.282 102.588C192.98 105.178 193.954 107.741 195.58 109.872C197.209 112.004 199.558 113.681 202.213 114.064C205.33 114.511 208.541 113.092 210.684 110.789C212.829 108.483 213.99 105.392 214.413 102.271C214.893 98.7315 214.468 95.071 213.193 91.7339C213.129 91.5673 213.058 91.3908 212.913 91.2831C212.719 91.1389 212.453 91.1568 212.212 91.1805C210.932 91.3099 209.653 91.4423 208.373 91.5717C211.11 94.6797 211.661 99.3178 210.454 103.277C209.841 105.28 208.792 107.191 207.212 108.567C205.631 109.943 203.483 110.735 201.409 110.427C199.333 110.118 197.507 108.731 196.405 106.946C195.302 105.161 194.88 103.017 194.926 100.921C194.938 100.371 195.023 99.7464 195.473 99.4337C196.039 99.0419 196.829 99.3831 197.331 99.8531C198.721 101.155 199.048 103.361 198.366 105.14C197.684 106.92 196.132 108.273 194.378 109.021C192.626 109.767 190.684 109.962 188.777 109.928C185.506 109.873 182.118 109.103 179.604 107.009C177.091 104.914 175.693 101.28 176.884 98.2315C176.987 97.9666 177.118 97.6958 177.355 97.5362C177.875 97.1813 178.653 97.6105 178.825 98.2163C178.996 98.824 178.715 99.4727 178.32 99.9651C177.367 101.157 175.754 101.713 174.232 101.602C172.708 101.49 171.277 100.774 170.091 99.8118C168.699 98.6805 167.584 97.1607 167.14 95.4214C166.695 93.684 166.976 91.7284 168.071 90.3052C166.75 90.495 161.546 91.4427 161.546 91.4427C161.546 91.4427 163.035 96.6643 164.013 98.4482L164.014 98.4513Z" fill="#FFDF24"/>
<path d="M146.729 103.575L146.432 103.382C146.242 103.248 146.035 103.172 145.81 103.15C145.598 103.092 145.385 103.092 145.167 103.146C144.946 103.183 144.75 103.271 144.58 103.41C144.383 103.521 144.224 103.676 144.106 103.875C144.041 104.011 143.977 104.147 143.913 104.281C143.825 104.564 143.812 104.85 143.871 105.138C143.919 105.273 143.965 105.409 144.013 105.544C144.151 105.814 144.346 106.034 144.6 106.199L144.896 106.392C145.086 106.526 145.293 106.603 145.518 106.624C145.73 106.682 145.943 106.682 146.162 106.628C146.382 106.591 146.578 106.503 146.748 106.364C146.945 106.253 147.104 106.098 147.222 105.899C147.287 105.763 147.352 105.627 147.416 105.491C147.504 105.209 147.52 104.924 147.458 104.634C147.41 104.499 147.364 104.363 147.316 104.228C147.178 103.958 146.984 103.738 146.73 103.573L146.729 103.575Z" fill="#47D658"/>
<path d="M112.941 115.201L113.326 114.61C113.46 114.42 113.537 114.212 113.558 113.987C113.616 113.775 113.618 113.561 113.562 113.344C113.525 113.124 113.437 112.928 113.298 112.758C113.187 112.561 113.033 112.402 112.834 112.283C112.698 112.219 112.562 112.154 112.426 112.09C112.143 112.002 111.858 111.986 111.568 112.048C111.434 112.095 111.297 112.142 111.162 112.19C110.892 112.328 110.673 112.522 110.507 112.776L110.122 113.368C109.989 113.557 109.912 113.765 109.89 113.99C109.834 114.2 109.832 114.414 109.887 114.633C109.924 114.854 110.012 115.049 110.151 115.219C110.262 115.416 110.416 115.575 110.615 115.694C110.751 115.759 110.887 115.823 111.023 115.888C111.306 115.976 111.592 115.989 111.88 115.93C112.015 115.882 112.152 115.835 112.286 115.787C112.557 115.65 112.776 115.455 112.941 115.201Z" fill="#47D658"/>
<path d="M108.716 88.0157L108.909 87.7189C109.042 87.5296 109.119 87.3218 109.141 87.0968C109.199 86.8849 109.2 86.6705 109.145 86.4537C109.107 86.233 109.018 86.0394 108.88 85.8674C108.769 85.6704 108.615 85.5116 108.416 85.3928C108.28 85.3282 108.144 85.2637 108.008 85.1991C107.725 85.1109 107.439 85.0975 107.151 85.1569C107.016 85.2048 106.88 85.2514 106.745 85.2993C106.475 85.437 106.255 85.6316 106.09 85.8854L105.897 86.1823C105.763 86.3715 105.686 86.5793 105.665 86.8044C105.607 87.0163 105.605 87.2307 105.661 87.4474C105.698 87.6682 105.787 87.8617 105.925 88.0337C106.036 88.2307 106.191 88.3896 106.39 88.5084C106.526 88.5729 106.662 88.6375 106.798 88.702C107.08 88.7903 107.366 88.8037 107.655 88.7442C107.789 88.6964 107.926 88.6497 108.061 88.6019C108.331 88.4642 108.551 88.2696 108.716 88.0157Z" fill="#47D658"/>
<path d="M93.1136 77.0255L93.3067 76.7287C93.4404 76.5394 93.5171 76.3316 93.5387 76.1065C93.5968 75.8946 93.5981 75.6803 93.5425 75.4635C93.5054 75.2428 93.4174 75.0473 93.2783 74.8772C93.1674 74.6802 93.013 74.5213 92.814 74.4025C92.678 74.338 92.542 74.2734 92.406 74.2089C92.1233 74.1207 91.8372 74.1072 91.5488 74.1667C91.4141 74.2145 91.2775 74.2612 91.1428 74.309C90.8725 74.4467 90.653 74.6413 90.4879 74.8952L90.2948 75.192C90.1611 75.3813 90.0844 75.5891 90.0628 75.8142C90.0047 76.0261 90.0034 76.2404 90.059 76.4572C90.0961 76.6779 90.1853 76.8715 90.3232 77.0435C90.4341 77.2405 90.5885 77.3993 90.7875 77.5181C90.9235 77.5827 91.0595 77.6473 91.1955 77.7118C91.4781 77.8 91.7631 77.8153 92.0527 77.754C92.1874 77.7061 92.324 77.6595 92.4587 77.6117C92.7289 77.4739 92.9485 77.2794 93.1136 77.0255Z" fill="#47D658"/>
<path d="M116.55 52.3967C116.713 52.3621 116.876 52.3275 117.04 52.2929C117.26 52.2558 117.456 52.1678 117.626 52.0287C117.823 51.9178 117.982 51.7634 118.101 51.5644C118.234 51.3751 118.311 51.1673 118.333 50.9423C118.389 50.7322 118.391 50.5179 118.336 50.2992C118.289 50.1645 118.242 50.0279 118.194 49.8932C118.056 49.623 117.862 49.4034 117.608 49.2383C117.472 49.1737 117.336 49.1092 117.2 49.0446C116.917 48.9564 116.631 48.943 116.343 49.0024C116.179 49.037 116.016 49.0716 115.853 49.1062C115.632 49.1433 115.437 49.2314 115.267 49.3704C115.069 49.4813 114.911 49.6357 114.792 49.8347C114.658 50.024 114.581 50.2318 114.56 50.4569C114.502 50.6688 114.5 50.8831 114.556 51.0999C114.604 51.2346 114.65 51.3712 114.698 51.506C114.836 51.7762 115.031 51.9957 115.285 52.1608C115.421 52.2254 115.557 52.29 115.693 52.3545C115.975 52.4427 116.26 52.458 116.55 52.3967Z" fill="#47D658"/>
<path d="M135.053 50.2722C135.413 50.5065 135.896 50.5974 136.316 50.5068C136.72 50.4213 137.164 50.1389 137.376 49.7801C137.596 49.4052 137.722 48.9504 137.61 48.5168C137.498 48.0851 137.265 47.7048 136.884 47.4571C136.523 47.2227 136.041 47.1319 135.62 47.2225C135.217 47.3079 134.773 47.5903 134.561 47.9491C134.341 48.3241 134.215 48.7788 134.326 49.2124C134.438 49.6441 134.672 50.0245 135.053 50.2722Z" fill="#47D658"/>
<path d="M149.194 89.9093L149.579 89.3175C149.713 89.1282 149.789 88.9205 149.811 88.6954C149.869 88.4835 149.869 88.271 149.815 88.0523C149.778 87.8316 149.69 87.6362 149.551 87.4661C149.44 87.2691 149.285 87.1102 149.086 86.9914C148.95 86.9268 148.814 86.8623 148.678 86.7977C148.396 86.7095 148.111 86.6942 147.821 86.7556C147.686 86.8034 147.55 86.85 147.415 86.8979C147.145 87.0356 146.925 87.2302 146.76 87.4841L146.375 88.0758C146.241 88.2651 146.165 88.4729 146.143 88.698C146.085 88.9099 146.084 89.1242 146.139 89.341C146.176 89.5617 146.265 89.7572 146.404 89.9273C146.514 90.1243 146.669 90.2832 146.868 90.402C147.004 90.4665 147.14 90.5311 147.276 90.5956C147.559 90.6838 147.843 90.6991 148.133 90.6378C148.268 90.59 148.404 90.5433 148.539 90.4955C148.809 90.3578 149.029 90.1632 149.194 89.9093Z" fill="#47D658"/>
<path d="M196.646 88.6003C196.611 88.437 196.577 88.2737 196.542 88.1104C196.505 87.8897 196.416 87.6961 196.278 87.5241C196.167 87.3271 196.013 87.1682 195.814 87.0494C195.624 86.9157 195.417 86.839 195.192 86.8174C194.98 86.7593 194.765 86.758 194.549 86.8136C194.414 86.8614 194.277 86.9081 194.143 86.9559C193.872 87.0936 193.653 87.2882 193.488 87.5421C193.423 87.6781 193.359 87.8141 193.294 87.9501C193.206 88.2328 193.19 88.5177 193.252 88.8073C193.286 88.9706 193.321 89.1339 193.356 89.2972C193.393 89.5179 193.481 89.7133 193.62 89.8834C193.731 90.0805 193.885 90.2393 194.084 90.3581C194.273 90.4919 194.481 90.5686 194.706 90.5901C194.918 90.6482 195.131 90.6483 195.349 90.594C195.484 90.5461 195.621 90.4995 195.755 90.4516C196.026 90.3139 196.245 90.1193 196.41 89.8654C196.475 89.7294 196.539 89.5934 196.604 89.4574C196.692 89.1748 196.707 88.8899 196.646 88.6003Z" fill="#47D658"/>
<path d="M160.706 41.5139C160.869 41.4793 161.032 41.4447 161.195 41.4101C161.416 41.373 161.612 41.285 161.782 41.1459C161.979 41.035 162.138 40.8806 162.256 40.6816C162.39 40.4923 162.467 40.2845 162.488 40.0595C162.547 39.8475 162.547 39.6351 162.492 39.4164C162.444 39.2817 162.398 39.1451 162.35 39.0104C162.212 38.7401 162.018 38.5206 161.764 38.3555C161.628 38.2909 161.492 38.2264 161.356 38.1618C161.073 38.0736 160.787 38.0602 160.499 38.1196C160.335 38.1542 160.172 38.1888 160.009 38.2234C159.788 38.2605 159.593 38.3485 159.422 38.4876C159.225 38.5985 159.067 38.7529 158.948 38.9519C158.814 39.1412 158.737 39.349 158.716 39.574C158.658 39.786 158.658 39.9984 158.712 40.2171C158.76 40.3518 158.806 40.4884 158.854 40.6231C158.992 40.8934 159.187 41.1129 159.44 41.278C159.576 41.3426 159.712 41.4071 159.848 41.4717C160.131 41.5599 160.416 41.5752 160.706 41.5139Z" fill="#47D658"/>
<path d="M198.198 55.5349C198.558 55.7692 199.041 55.8601 199.463 55.7707C199.867 55.6852 200.311 55.4029 200.523 55.0441C200.743 54.6691 200.868 54.2143 200.757 53.7807C200.646 53.3471 200.411 52.9687 200.029 52.7198C199.668 52.4854 199.186 52.3945 198.765 52.4852C198.362 52.5706 197.918 52.853 197.706 53.2118C197.486 53.5868 197.36 54.0415 197.471 54.4751C197.583 54.9068 197.817 55.2872 198.198 55.5349Z" fill="#47D658"/>
<path d="M188.862 130.776C189.222 131.01 189.705 131.101 190.125 131.011C190.528 130.925 190.972 130.643 191.186 130.282C191.406 129.907 191.532 129.452 191.42 129.019C191.309 128.585 191.075 128.207 190.694 127.959C190.334 127.725 189.851 127.634 189.43 127.724C189.027 127.81 188.584 128.09 188.371 128.451C188.151 128.826 188.024 129.283 188.135 129.716C188.246 130.15 188.481 130.528 188.862 130.776Z" fill="#47D658"/>
<path d="M143.962 155.603L144.347 155.011C144.48 154.822 144.557 154.614 144.579 154.389C144.637 154.177 144.638 153.962 144.582 153.746C144.545 153.525 144.457 153.33 144.318 153.159C144.207 152.962 144.053 152.804 143.854 152.685C143.718 152.62 143.582 152.556 143.446 152.491C143.163 152.403 142.878 152.388 142.589 152.449C142.454 152.497 142.317 152.543 142.183 152.591C141.912 152.729 141.693 152.924 141.528 153.177L141.143 153.769C141.009 153.958 140.932 154.166 140.911 154.391C140.854 154.601 140.853 154.816 140.907 155.034C140.944 155.255 141.032 155.451 141.171 155.621C141.282 155.818 141.437 155.977 141.636 156.095C141.772 156.16 141.908 156.224 142.044 156.289C142.326 156.377 142.612 156.391 142.901 156.331C143.035 156.283 143.172 156.237 143.307 156.189C143.577 156.051 143.797 155.857 143.962 155.603Z" fill="#47D658"/>
<path d="M173.682 139.862C174.043 140.096 174.526 140.187 174.946 140.097C175.366 140.006 175.793 139.729 176.006 139.37C176.225 138.995 176.351 138.54 176.24 138.107C176.129 137.673 175.894 137.295 175.513 137.047C175.153 136.813 174.67 136.722 174.25 136.812C173.847 136.898 173.403 137.18 173.19 137.539C172.97 137.914 172.843 138.371 172.956 138.802C173.068 139.234 173.302 139.614 173.682 139.862Z" fill="#47D658"/>
<path d="M99.7234 105.238C100.084 105.472 100.566 105.563 100.987 105.473C101.39 105.387 101.834 105.105 102.046 104.746C102.266 104.371 102.392 103.916 102.281 103.483C102.169 103.051 101.935 102.671 101.554 102.423C101.194 102.189 100.711 102.098 100.291 102.188C99.8875 102.274 99.4435 102.556 99.2313 102.915C99.0114 103.29 98.8856 103.745 98.9967 104.178C99.1091 104.61 99.3425 104.99 99.7234 105.238Z" fill="#47D658"/>
<path d="M85.7369 56.3703C85.9002 56.3357 86.0635 56.3011 86.2268 56.2666C86.4475 56.2295 86.643 56.1414 86.8131 56.0024C87.0101 55.8914 87.169 55.7371 87.2878 55.5381C87.4215 55.3488 87.4982 55.141 87.5198 54.9159C87.5779 54.704 87.5792 54.4897 87.5236 54.2729C87.4758 54.1381 87.4291 54.0015 87.3813 53.8668C87.2436 53.5966 87.049 53.377 86.7951 53.2119C86.6591 53.1474 86.5231 53.0828 86.3871 53.0183C86.1044 52.93 85.8195 52.9147 85.5299 52.9761C85.3666 53.0107 85.2033 53.0453 85.04 53.0798C84.8193 53.1169 84.6239 53.205 84.4538 53.344C84.2567 53.455 84.0979 53.6093 83.9791 53.8083C83.8453 53.9976 83.7686 54.2054 83.7471 54.4305C83.6902 54.6405 83.6889 54.8549 83.7432 55.0735C83.7911 55.2083 83.8377 55.3449 83.8856 55.4796C84.0233 55.7498 84.2179 55.9693 84.4718 56.1345C84.6078 56.199 84.7438 56.2636 84.8798 56.3281C85.1624 56.4164 85.4473 56.4317 85.7369 56.3703Z" fill="#47D658"/>
</g>
<defs>
<clipPath id="clip0_115_8723">
<rect width="137.465" height="218.215" fill="white" transform="translate(118.981) rotate(33.0415)"/>
</clipPath>
</defs>
</svg>
